<svg width="169" height="65" viewBox="0 0 169 65" fill="none" xmlns="http://www.w3.org/2000/svg">
<path d="M42.0854 22.2167V17.0515H49.7954V22.2167H42.0854ZM42.6551 42.612V29.8128H40.0345L40.6422 24.6095H49.7954V42.612H42.6551ZM58.8412 42.9918C57.7018 42.9918 56.6383 42.7893 55.6508 42.3841C54.6887 41.979 53.9164 41.346 53.3341 40.4851C52.7517 39.6243 52.4605 38.5355 52.4605 37.2189C52.4605 35.3199 53.0935 33.8513 54.3595 32.8132C55.6255 31.7497 57.5372 31.218 60.0945 31.218H64.766V30.8762C64.766 30.1672 64.4749 29.6482 63.8925 29.319C63.3101 28.9899 62.2847 28.8253 60.8161 28.8253C58.7399 28.8253 56.689 29.1418 54.6634 29.7748V25.483C55.5749 25.1285 56.7143 24.8374 58.0816 24.6095C59.4488 24.3563 60.8414 24.2297 62.2594 24.2297C65.1205 24.2297 67.3867 24.812 69.0578 25.9768C70.7289 27.1415 71.5645 28.9899 71.5645 31.5219V42.612H65.3358L64.9939 41.1688C64.3609 41.7258 63.538 42.1689 62.5252 42.4981C61.5377 42.8273 60.3097 42.9918 58.8412 42.9918ZM61.2719 38.814C62.0821 38.814 62.7658 38.6748 63.3228 38.3962C63.9052 38.1177 64.3862 37.7759 64.766 37.3708V35.13H61.3099C59.74 35.13 58.9551 35.7503 58.9551 36.991C58.9551 38.2063 59.7274 38.814 61.2719 38.814Z" fill="#424647"/>
<path d="M82.1581 42.9918C78.993 42.9918 76.6003 42.1942 74.9798 40.5991C73.3593 38.9786 72.5491 36.6492 72.5491 33.6108C72.5491 30.4458 73.4353 28.091 75.2077 26.5465C77.0054 25.0019 79.3982 24.2297 82.3859 24.2297C83.6266 24.2297 84.6647 24.3183 85.5003 24.4955C86.3612 24.6728 87.1841 24.9513 87.969 25.3311V28.4075C86.6524 27.7492 85.0572 27.42 83.1835 27.42C81.1073 27.42 79.5121 27.8884 78.398 28.8253C77.2839 29.7368 76.7269 31.332 76.7269 33.6108C76.7269 35.763 77.2206 37.3455 78.2081 38.3583C79.1956 39.3457 80.8287 39.8395 83.1076 39.8395C84.9053 39.8395 86.5384 39.4977 88.007 38.814V41.9664C87.1714 42.2955 86.2726 42.5487 85.3104 42.726C84.3736 42.9032 83.3228 42.9918 82.1581 42.9918ZM99.9188 42.9918C96.6778 42.9918 94.2977 42.1816 92.7785 40.5611C91.2846 38.9406 90.5377 36.6238 90.5377 33.6108C90.5377 30.5977 91.2973 28.2809 92.8165 26.6604C94.3357 25.0399 96.7031 24.2297 99.9188 24.2297C103.16 24.2297 105.54 25.0399 107.059 26.6604C108.578 28.2809 109.338 30.5977 109.338 33.6108C109.338 36.6238 108.578 38.9406 107.059 40.5611C105.565 42.1816 103.185 42.9918 99.9188 42.9918ZM99.9188 39.4977C101.818 39.4977 103.16 39.0419 103.945 38.1304C104.755 37.1935 105.16 35.687 105.16 33.6108C105.16 31.5345 104.755 30.0406 103.945 29.1291C103.16 28.2176 101.818 27.7618 99.9188 27.7618C98.0451 27.7618 96.7031 28.2176 95.8929 29.1291C95.108 30.0406 94.7155 31.5345 94.7155 33.6108C94.7155 35.687 95.108 37.1935 95.8929 38.1304C96.7031 39.0419 98.0451 39.4977 99.9188 39.4977ZM121.987 42.9918C118.746 42.9918 116.366 42.1816 114.847 40.5611C113.353 38.9406 112.606 36.6238 112.606 33.6108C112.606 30.5977 113.366 28.2809 114.885 26.6604C116.404 25.0399 118.772 24.2297 121.987 24.2297C125.228 24.2297 127.608 25.0399 129.128 26.6604C130.647 28.2809 131.406 30.5977 131.406 33.6108C131.406 36.6238 130.647 38.9406 129.128 40.5611C127.634 42.1816 125.254 42.9918 121.987 42.9918ZM121.987 39.4977C123.886 39.4977 125.228 39.0419 126.013 38.1304C126.823 37.1935 127.229 35.687 127.229 33.6108C127.229 31.5345 126.823 30.0406 126.013 29.1291C125.228 28.2176 123.886 27.7618 121.987 27.7618C120.114 27.7618 118.772 28.2176 117.961 29.1291C117.176 30.0406 116.784 31.5345 116.784 33.6108C116.784 35.687 117.176 37.1935 117.961 38.1304C118.772 39.0419 120.114 39.4977 121.987 39.4977ZM135.434 50.8157V24.6095H139.004L139.232 26.3945C140.043 25.6603 140.929 25.1159 141.891 24.7614C142.853 24.4069 143.992 24.2297 145.309 24.2297C147.892 24.2297 149.905 24.9386 151.348 26.3566C152.791 27.7492 153.513 30.066 153.513 33.3069C153.513 36.5479 152.766 38.9786 151.272 40.5991C149.778 42.1942 147.74 42.9918 145.157 42.9918C142.98 42.9918 141.119 42.4854 139.574 41.4726V50.8157H135.434ZM144.094 39.8775C147.588 39.8775 149.335 37.6746 149.335 33.2689C149.335 31.1421 148.943 29.6355 148.158 28.7493C147.373 27.8378 146.056 27.382 144.208 27.382C142.359 27.382 140.815 28.015 139.574 29.281V38.2823C140.156 38.7634 140.802 39.1558 141.511 39.4597C142.245 39.7382 143.106 39.8775 144.094 39.8775Z" fill="#424647"/>
<path fill-rule="evenodd" clip-rule="evenodd" d="M22.7298 44.3995L24.771 50.3051H26.2813L41.0687 12.0691H158.293L152.634 5.73083H36.0247L22.7298 44.3995Z" fill="url(#paint0_linear_2501_6)"/>
<mask id="mask0_2501_6" style="mask-type:luminance" maskUnits="userSpaceOnUse" x="22" y="5" width="137" height="46">
<path d="M22.7298 44.3995L24.771 50.3045H26.2813L41.0692 12.0692H158.294L152.635 5.73029H36.0253L22.7304 44.3995H22.7298Z" fill="white"/>
</mask>
<g mask="url(#mask0_2501_6)">
<path fill-rule="evenodd" clip-rule="evenodd" d="M39.1686 11.4099L25.5264 50.3051H26.2812L41.0686 12.0691H171.641V9.66089H39.6943L39.1686 11.4099Z" fill="url(#paint1_linear_2501_6)"/>
</g>
<path fill-rule="evenodd" clip-rule="evenodd" d="M21.7659 41.6115L35.4261 3.4746L35.4163 3.46492H152.06L147.139 0H31.8954L19.6448 35.4912L21.7659 41.6115Z" fill="url(#paint2_linear_2501_6)"/>
<mask id="mask1_2501_6" style="mask-type:luminance" maskUnits="userSpaceOnUse" x="19" y="0" width="134" height="42">
<path d="M21.7659 41.6115L35.4261 3.4746L35.4163 3.46492H152.06L147.139 0H31.8949L19.6448 35.4912L21.7653 41.6115H21.7659Z" fill="white"/>
</mask>
<g mask="url(#mask1_2501_6)">
<path fill-rule="evenodd" clip-rule="evenodd" d="M171.645 3.46491V3.38634L35.231 3.33453L21.4174 40.606L21.796 41.7037L35.4261 3.47459L171.645 3.46491Z" fill="url(#paint3_linear_2501_6)"/>
</g>
<path fill-rule="evenodd" clip-rule="evenodd" d="M13.0616 50.3051L0 16.9477L14.3879 20.1934L18.2393 31.4006L18.2468 31.4211L19.6449 35.4912L19.6489 35.4798L21.7665 41.6092L21.7659 41.6115L22.7049 44.4678L22.7304 44.3983L24.771 50.3051H13.0616Z" fill="url(#paint4_linear_2501_6)"/>
<mask id="mask2_2501_6" style="mask-type:luminance" maskUnits="userSpaceOnUse" x="0" y="16" width="25" height="35">
<path d="M13.0616 50.3051L0 16.9477L14.3879 20.1934L18.2393 31.4006L18.2468 31.4217L19.6454 35.4912L19.6495 35.4804L21.7671 41.6092L21.7665 41.6115L22.7061 44.4678L22.7315 44.3983L24.7721 50.3051H13.0628H13.0616Z" fill="white"/>
</mask>
<g mask="url(#mask2_2501_6)">
<path fill-rule="evenodd" clip-rule="evenodd" d="M7.62575 18.6682L16.3497 50.3051H13.3267L1.01996 17.1777L7.62575 18.6682Z" fill="url(#paint5_linear_2501_6)"/>
<path fill-rule="evenodd" clip-rule="evenodd" d="M13.2358 19.9333L22.8461 44.7337C22.8461 44.7337 14.6281 20.2475 14.3878 20.1934C14.1476 20.1394 13.2364 19.9338 13.2364 19.9338L13.2358 19.9333Z" fill="url(#paint6_linear_2501_6)"/>
</g>
<path fill-rule="evenodd" clip-rule="evenodd" d="M2.04061 17.4077L13.5925 50.3051H13.0616L0 16.9477L2.04061 17.4077Z" fill="url(#paint7_linear_2501_6)"/>
<defs>
<linearGradient id="paint0_linear_2501_6" x1="39.6967" y1="17.9121" x2="23.0246" y2="38.7796" gradientUnits="userSpaceOnUse">
<stop stop-color="#30854B"/>
<stop offset="1" stop-color="#2A372F"/>
</linearGradient>
<linearGradient id="paint1_linear_2501_6" x1="25.0453" y1="48.9142" x2="42.6938" y2="-1.57201" gradientUnits="userSpaceOnUse">
<stop stop-color="#2A372F"/>
<stop offset="0.180392" stop-color="#2D4D34"/>
<stop offset="0.980392" stop-color="#30854B"/>
<stop offset="1" stop-color="#30854B"/>
</linearGradient>
<linearGradient id="paint2_linear_2501_6" x1="14.9726" y1="41.0615" x2="34.3752" y2="-12.0219" gradientUnits="userSpaceOnUse">
<stop stop-color="#484329"/>
<stop offset="0.419608" stop-color="#8D7C35"/>
<stop offset="1" stop-color="#D5C35A"/>
</linearGradient>
<linearGradient id="paint3_linear_2501_6" x1="33.4046" y1="33.2498" x2="190.557" y2="-6.85937" gradientUnits="userSpaceOnUse">
<stop stop-color="#D5C35A"/>
<stop offset="0.580392" stop-color="#A28C3A"/>
<stop offset="0.831373" stop-color="#87793F"/>
<stop offset="1" stop-color="#57502E"/>
</linearGradient>
<linearGradient id="paint4_linear_2501_6" x1="-4.96867" y1="40.704" x2="45.4251" y2="24.0608" gradientUnits="userSpaceOnUse">
<stop stop-color="#30854B"/>
<stop offset="0.768627" stop-color="#2C4532"/>
<stop offset="1" stop-color="#2A372F"/>
</linearGradient>
<linearGradient id="paint5_linear_2501_6" x1="0.721248" y1="46.806" x2="17.5988" y2="16.6789" gradientUnits="userSpaceOnUse">
<stop stop-color="#A8D6AC"/>
<stop offset="0.0901961" stop-color="#57BB69"/>
<stop offset="0.309804" stop-color="#439456"/>
<stop offset="0.611765" stop-color="#2E6C42"/>
<stop offset="1" stop-color="#232A25"/>
</linearGradient>
<linearGradient id="paint6_linear_2501_6" x1="13.468" y1="32.3337" x2="22.8461" y2="32.3337" gradientUnits="userSpaceOnUse">
<stop stop-color="#A8D6AC"/>
<stop offset="0.341176" stop-color="#57BB69"/>
<stop offset="0.615686" stop-color="#439456"/>
<stop offset="1" stop-color="#2E6C42"/>
</linearGradient>
<linearGradient id="paint7_linear_2501_6" x1="-1.45014" y1="45.8159" x2="15.9843" y2="21.15" gradientUnits="userSpaceOnUse">
<stop stop-color="#57BB69"/>
<stop offset="1" stop-color="#2C4532"/>
</linearGradient>
</defs>
</svg>
