<svg width="19" height="13" viewBox="0 0 19 13" fill="none" xmlns="http://www.w3.org/2000/svg">
<g clip-path="url(#clip0_2502_74)">
<path fill-rule="evenodd" clip-rule="evenodd" d="M1.86905 5.08468H12.5391L8.4505 2.61379C7.78724 2.21271 7.57257 1.34231 7.97383 0.679338C8.37509 0.016364 9.24587 -0.198208 9.90913 0.202877L18.3207 5.28714C18.7589 5.55178 19.0011 6.02109 18.9994 6.5003C19.0005 6.97951 18.7583 7.44882 18.3207 7.71346L9.90913 12.7977C9.24587 13.1988 8.37509 12.9842 7.97383 12.3213C7.57257 11.6583 7.78724 10.7879 8.4505 10.3868L12.5605 7.90218H1.86905C1.09405 7.90218 0.459412 7.26836 0.459412 6.49315C0.459412 5.71849 1.0935 5.08468 1.86905 5.08468Z" fill="#424647"/>
</g>
<defs>
<clipPath id="clip0_2502_74">
<rect width="18.5406" height="13" fill="white" transform="translate(0.459412)"/>
</clipPath>
</defs>
</svg>
